<?xml version="1.0" encoding="UTF-8"?>
<svg width="270px" height="48px" viewBox="0 0 270 48" version="1.1" xmlns="http://www.w3.org/2000/svg" xmlns:xlink="http://www.w3.org/1999/xlink">
    <!-- Generator: Sketch 52.6 (67491) - http://www.bohemiancoding.com/sketch -->
    <title>staraid-color</title>
    <desc>Created with Sketch.</desc>
    <defs>
        <linearGradient x1="9.88244743%" y1="41.9921875%" x2="100%" y2="100%" id="linearGradient-1">
            <stop stop-color="#100E67" offset="0%"></stop>
            <stop stop-color="#3D0D85" offset="24.8267027%"></stop>
            <stop stop-color="#9331A9" offset="69.9399386%"></stop>
            <stop stop-color="#FFBF66" offset="100%"></stop>
        </linearGradient>
    </defs>
    <g id="Identity" stroke="none" stroke-width="1" fill="none" fill-rule="evenodd">
        <g id="Logo-2" transform="translate(-225.000000, -642.000000)">
            <g id="staraid-color" transform="translate(225.000000, 642.000000)">
                <path d="M30.1747968,12.747838 C30.1747968,12.747838 21.4901258,11.4196097 20.2333961,11.4196097 C18.6415508,11.4196097 17.3428936,11.7663648 16.3375464,12.4598189 C15.3321383,13.153273 14.8294343,14.058636 14.8294343,15.1759081 C14.8294343,15.9464251 15.0808168,16.5820961 15.5834599,17.0829209 C16.0861639,17.5837458 16.7459744,18.0172036 17.5628304,18.3831824 C18.3797473,18.7491611 19.3013003,19.0669966 20.3276722,19.3366888 C21.3539831,19.6063809 22.3698731,19.8952968 23.3752203,20.2035484 C27.3967917,21.4363308 30.3396428,23.0833473 32.2037735,25.144486 C34.0679042,27.2056246 35,29.8927942 35,33.206051 C35,35.4405391 34.591572,37.4631743 33.774716,39.2738444 C32.9577991,41.0845706 31.7638998,42.6352445 30.1930182,43.9258661 C28.6220757,45.2164877 26.6951146,46.2181934 24.4120131,46.9309273 C22.1289725,47.6436611 19.5422009,48 16.6516983,48 C10.6612992,48 5.11071277,46.3626233 0,43.087926 L4.60368189,33.9486572 C6.44690976,35.4511878 14.3267302,38.4070408 16.0861639,38.4070408 C18.0969801,38.4070408 19.5945494,37.9832789 20.5789937,37.135699 C21.5634381,36.288119 22.0556602,35.3249728 22.0556602,34.2462602 C22.0556602,33.5913095 21.9299994,33.0230616 21.6786169,32.5414605 C21.4272954,32.0599153 21.0083855,31.6168176 20.4218873,31.2123354 C19.83545,30.8077972 19.0709425,30.4321785 18.1283648,30.0854235 C17.1858481,29.7387244 16.0442973,29.3534659 14.7037735,28.929648 C13.1119281,28.4673265 11.5514675,27.9568618 10.0224525,27.3982538 C8.4934375,26.8396458 7.13194991,26.0979923 5.93805065,25.1733495 C4.74415138,24.2487627 3.78067084,23.0833473 3.04754807,21.6771594 C2.31448625,20.2709715 1.94792486,18.4891088 1.94792486,16.3316836 C1.94792486,14.1742024 2.33545002,12.2190463 3.1104394,10.4661033 C3.88542878,8.71316027 4.9745701,7.21062969 6.37792431,5.95856757 C7.78127851,4.7064494 9.49878466,3.73366327 11.5305037,3.04020917 C13.5622227,2.34675507 15.8348424,2 18.3483017,2 C21.652656,2 30.4013153,3.21899512 30.4013153,3.21899512 L30.1747968,12.747838 Z M115,47.08 L102.003692,47.08 L99.2054154,39.4076138 L88.19504,39.4076138 L91.4227077,30.681059 L95.97232,30.681059 L90.5,15.9805796 L78.9963077,47.08 L66,47.08 L83.8462523,2.92 L97.1537477,2.92 L115,47.08 Z M46.9459403,17.534668 L59.0539998,17.534668 L59.0539998,47.08 L46.9459403,47.08 L46.9459403,17.534668 Z M69,12.6422183 L59.0539998,12.6422183 L46.9459403,12.6422183 L37,12.6422183 L37,2.92 L69,2.92 L69,12.6422183 Z M120,11.7602702 L120,2.92 L138.971555,2.92 C141.583619,2.92 143.864501,3.28119714 145.813596,4.00353462 C147.762088,4.72587211 149.369142,5.71176592 150.634153,6.96121608 C151.898561,8.21060943 152.852297,9.65528439 153.49536,11.2951842 C154.137819,12.9350839 154.45935,14.6921072 154.45935,16.5662541 C154.45935,19.9241549 153.599118,22.6475325 151.878051,24.7364437 C150.156984,26.8253548 147.617309,28.2407205 144.258422,28.9825975 L159,47.08 L143.822877,47.08 L132.191044,30.0953846 L132.191044,47.08 L120,47.08 L120,17.4403636 L132.191044,17.4403636 L132.191044,22.6573023 L134.493039,22.6573023 C136.89819,22.6573023 138.742923,22.1887514 140.028445,21.2517063 C141.313968,20.3146045 141.95703,18.9675704 141.95703,17.2104903 C141.95703,15.453467 141.313968,14.1064328 140.028445,13.169331 C138.742923,12.232286 136.89819,11.7637351 134.493039,11.7637351 L120,11.7602702 Z" id="Combined-Shape-Copy-3" fill="#100E67"></path>
                <path d="M209,47 L201.185417,47 L186.290962,14.9506228 L178.935953,29.9872027 L186.6641,29.9872027 L189.578589,36.2595695 L175.963028,36.2595695 L170.692232,47 L163,47 L186.413921,0 L209,47 Z M234,9.04609432 L234,2.76470588 L243.769238,2.76470588 C248.452341,2.76470588 252.150913,3.20401157 254.864358,4.08262294 C257.77902,4.94211427 260.422397,6.40326091 262.793892,8.46600595 C267.597964,12.629793 270,18.1018802 270,24.8823245 C270,31.6818888 267.497954,37.182656 262.492664,41.3846263 C259.979838,43.4856114 257.346641,44.9467581 254.593073,45.7680662 C252.020361,46.5893175 248.372093,47 243.648268,47 L234,47 L234,14.7365825 L241.025252,14.7365825 L241.025252,40.7256678 L244.190837,40.7256678 C247.346841,40.7256678 249.969857,40.4105285 252.060485,39.7802501 C254.151113,39.1117315 256.040523,38.0517074 257.728715,36.6001208 C261.185947,33.6014611 262.914862,29.6955101 262.914862,24.8823245 C262.914862,20.0310126 261.206308,16.0964384 257.789201,13.0786587 C254.713444,10.3855783 250.181256,9.03903811 244.190837,9.03903811 L234,9.04609432 Z M215,47 L215,14.7366394 L222,14.7366394 L222,47 L215,47 Z M215,9.04609432 L215,2.76470588 L222,2.76470588 L222,9.04609432 L215,9.04609432 Z" id="Combined-Shape-Copy-4" fill="url(#linearGradient-1)"></path>
            </g>
        </g>
    </g>
</svg>